<svg width="372" height="253" viewBox="0 0 372 253" fill="none" xmlns="http://www.w3.org/2000/svg">
<path d="M369.741 86.4323C357.339 31.616 292.603 0.243301 218.399 12.9354C217.815 13.0321 217.243 13.1322 216.662 13.2358C181.813 19.4997 147.488 17.2087 119.534 5.61807C104.333 -0.702941 85.3811 -1.57959 66.5313 3.16633C47.6814 7.91225 30.3482 17.9245 18.0554 31.1677C5.76261 44.4109 -0.56708 59.891 0.353123 74.4609C1.27333 89.0309 9.37435 101.597 23.0093 109.605C48.0316 124.345 63.5778 146.858 68.4744 172.903L68.734 174.205C79.9143 229.298 143.619 261.783 217.829 250.035C240.188 246.543 262.324 239.266 282.671 228.721C303.017 218.175 321.077 204.617 335.57 189.008C350.064 173.399 360.637 156.12 366.542 138.394C372.447 120.669 373.539 102.929 369.741 86.4323Z" fill="url(#paint0_radial_941_8759)" fill-opacity="0.41"/>
<defs>
<radialGradient id="paint0_radial_941_8759" cx="0" cy="0" r="1" gradientUnits="userSpaceOnUse" gradientTransform="translate(195.142 108.505) rotate(122.354) scale(269.929 298.65)">
<stop stop-color="#348AD6" stop-opacity="0.68"/>
<stop offset="0.563347" stop-color="white"/>
</radialGradient>
</defs>
</svg>
