<svg width="314" height="307" viewBox="0 0 314 307" fill="none" xmlns="http://www.w3.org/2000/svg">
<path d="M236.616 0.101085C223.5 -0.602283 210.431 2.37288 198.494 8.77926C186.557 15.1856 176.097 24.8382 167.985 36.9345C147.788 67.0554 155.848 87.8388 140.095 120.047C123.736 153.502 87.9147 169.918 62.1734 171.682C30.8505 173.834 2.97945 196.661 0.225383 233.301C-1.11383 251.028 3.55285 268.66 13.217 282.388C22.8812 296.116 36.7668 304.837 51.8732 306.667C60.1841 307.644 68.5767 306.466 76.4555 303.216C84.3343 299.967 91.5062 294.725 97.4621 287.863C112.499 270.371 113.528 244.295 125.627 224.867C138.608 204.019 162.862 195.757 183.646 192.595C224.278 186.334 272.547 192.982 299.555 148.984C336.46 88.7208 298.013 3.99528 236.616 0.101085Z" fill="url(#paint0_radial_941_8787)" fill-opacity="0.2"/>
<defs>
<radialGradient id="paint0_radial_941_8787" cx="0" cy="0" r="1" gradientUnits="userSpaceOnUse" gradientTransform="translate(157 153.5) rotate(-77.8069) scale(191.16 198.774)">
<stop stop-color="#46AEE8" stop-opacity="0.6"/>
<stop offset="1" stop-color="white"/>
</radialGradient>
</defs>
</svg>
